<?xml version="1.0" standalone="no"?>
<!DOCTYPE svg PUBLIC "-//W3C//DTD SVG 20010904//EN"
 "http://www.w3.org/TR/2001/REC-SVG-20010904/DTD/svg10.dtd">
<svg version="1.0" xmlns="http://www.w3.org/2000/svg"
 width="256.000000pt" height="256.000000pt" viewBox="0 0 256.000000 256.000000"
 preserveAspectRatio="xMidYMid meet">

<g transform="translate(0.000000,256.000000) scale(0.100000,-0.100000)"
fill="#000000" stroke="none">
<path d="M2235 1845 c-153 -77 -343 -141 -490 -165 -110 -18 -122 -25 -141
-83 -20 -61 -83 -132 -130 -147 -26 -9 -34 -17 -34 -35 0 -33 13 -38 52 -22
66 29 123 104 147 194 13 47 7 45 156 74 151 29 280 67 465 136 57 22 78 35
88 56 26 55 10 53 -113 -8z"/>
<path d="M36 1873 c22 -93 70 -188 116 -230 26 -24 108 -52 233 -78 99 -21
156 -37 151 -42 -5 -5 -305 15 -353 24 -25 4 -33 2 -33 -10 0 -27 82 -138 121
-164 38 -25 40 -25 213 -21 103 2 172 0 166 -6 -12 -12 -170 -44 -262 -52 -43
-4 -81 -10 -83 -14 -8 -12 79 -87 132 -114 27 -13 65 -27 84 -31 42 -8 152 24
228 67 29 16 55 27 57 25 7 -7 -98 -95 -157 -132 -39 -24 -47 -34 -37 -42 24
-19 121 -45 173 -47 46 -1 58 3 100 37 27 20 50 35 53 32 5 -5 -64 -93 -87
-111 -22 -17 1 -26 71 -27 63 -2 75 6 115 69 12 19 10 9 -14 -69 -5 -16 -1
-17 38 -11 l44 7 -36 -44 c-29 -35 -34 -47 -26 -61 8 -12 7 -24 -1 -43 -10
-22 -17 -26 -38 -21 -17 5 -23 3 -19 -4 3 -5 -1 -17 -10 -26 -9 -9 -13 -19
-10 -22 3 -3 11 0 17 6 17 17 38 15 60 -5 20 -17 26 -5 6 15 -9 9 -7 20 8 47
18 34 44 47 44 23 0 -7 9 2 21 21 28 47 34 33 14 -35 -22 -75 -65 -160 -104
-203 -17 -19 -31 -37 -31 -39 0 -10 83 9 106 24 l24 16 0 -72 c0 -86 9 -88 60
-11 l35 52 11 -73 c13 -78 27 -122 42 -132 15 -9 44 73 50 142 2 34 7 62 11
62 3 -1 20 -24 36 -53 43 -74 60 -70 59 16 0 37 0 67 1 67 0 0 18 -9 40 -20
40 -21 85 -27 85 -12 0 5 -9 17 -20 27 -37 33 -82 115 -106 191 -14 42 -23 79
-21 81 8 7 37 -28 37 -44 0 -13 3 -13 15 -3 24 20 57 -25 50 -70 -5 -31 -4
-33 8 -17 16 20 48 22 65 5 8 -8 12 -8 12 -1 0 6 -7 16 -15 23 -13 11 -13 15
-3 22 8 6 1 7 -19 3 -30 -6 -33 -4 -41 27 -7 25 -5 35 5 41 11 7 10 12 -6 25
-10 9 -27 30 -37 46 l-18 29 38 -7 c37 -7 38 -6 32 16 -4 13 -9 39 -12 58 l-5
35 20 -42 c23 -49 66 -66 137 -56 48 6 53 13 27 34 -21 18 -73 89 -73 101 0 5
21 -8 47 -29 40 -33 52 -38 97 -37 50 0 186 39 186 53 0 4 -28 26 -62 48 -64
43 -158 123 -144 123 4 0 26 -11 49 -24 66 -38 197 -79 233 -73 51 8 119 44
171 88 61 53 66 69 19 69 -20 0 -80 7 -134 15 -231 36 -239 52 -22 47 192 -5
211 -1 264 58 40 45 91 128 82 137 -3 3 -38 1 -78 -5 -40 -6 -129 -13 -198
-16 -115 -5 -122 -4 -85 8 22 8 87 24 145 36 203 44 231 62 288 191 29 64 49
139 36 139 -3 0 -18 -8 -32 -19 -57 -39 -214 -111 -332 -151 -143 -48 -224
-69 -419 -111 -52 -11 -65 -18 -73 -39 -49 -125 -104 -190 -187 -222 l-41 -16
-15 27 c-13 26 -35 133 -35 174 0 12 8 17 25 17 18 0 25 5 25 19 0 32 -18 40
-137 57 -71 11 -84 -5 -127 -153 -21 -70 -42 -132 -47 -137 -4 -5 -36 7 -71
26 -74 41 -131 109 -153 183 l-15 51 -138 28 c-139 29 -269 66 -397 113 -72
26 -283 127 -299 144 -18 17 -26 9 -20 -18z m1274 -253 c0 -5 -4 -10 -10 -10
-5 0 -10 5 -10 10 0 6 5 10 10 10 6 0 10 -4 10 -10z"/>
<path d="M212 1870 c2 -23 10 -36 30 -46 38 -20 179 -72 258 -95 36 -11 85
-25 110 -33 25 -7 88 -21 140 -31 151 -28 163 -33 178 -85 27 -90 70 -148 136
-182 38 -19 40 -20 53 -2 19 26 17 32 -24 53 -58 30 -108 85 -133 145 -25 62
-32 66 -165 91 -97 18 -101 19 -245 66 -78 25 -156 60 -333 147 -4 2 -6 -10
-5 -28z"/>
</g>
</svg>
